<?xml version="1.0" encoding="UTF-8"?>
<svg id="Layer_2" data-name="Layer 2" xmlns="http://www.w3.org/2000/svg" xmlns:xlink="http://www.w3.org/1999/xlink" viewBox="0 0 233.88 149.64">
  <defs>
    <style>
      .cls-1, .cls-2, .cls-3 {
        fill: none;
      }

      .cls-2 {
        stroke: #8e4d77;
        stroke-linecap: round;
        stroke-width: 2px;
      }

      .cls-2, .cls-3 {
        stroke-miterlimit: 10;
      }

      .cls-4 {
        fill: url(#linear-gradient-2);
      }

      .cls-5 {
        fill: #c45e8d;
      }

      .cls-6 {
        fill: url(#radial-gradient);
      }

      .cls-7 {
        fill: url(#linear-gradient);
      }

      .cls-8 {
        fill: #fff3f9;
      }

      .cls-3 {
        stroke: #aa9372;
        stroke-width: 4px;
      }

      .cls-9 {
        fill: #8e4d77;
      }

      .cls-10 {
        clip-path: url(#clippath);
      }
    </style>
    <linearGradient id="linear-gradient" x1="26.07" y1="105.62" x2="87.67" y2="77.06" gradientTransform="translate(.33 3.16) rotate(-1.77)" gradientUnits="userSpaceOnUse">
      <stop offset=".02" stop-color="#b2996d"/>
      <stop offset=".39" stop-color="#c2ac80"/>
      <stop offset="1" stop-color="#e5d5a8"/>
    </linearGradient>
    <clipPath id="clippath">
      <path class="cls-1" d="M7.75,57.88s66.11,88.96,69.5,87.19-5.39-106.76-5.39-106.76L7.75,57.88Z"/>
    </clipPath>
    <linearGradient id="linear-gradient-2" x1="-19.11" y1="-33.09" x2="51.4" y2="-39.02" gradientTransform="translate(22.32 74.57) rotate(-10.34) scale(1.08 .56)" gradientUnits="userSpaceOnUse">
      <stop offset="0" stop-color="#c45e8d"/>
      <stop offset=".2" stop-color="#d1719e"/>
      <stop offset=".47" stop-color="#e893bc"/>
      <stop offset=".99" stop-color="#c45e8d"/>
    </linearGradient>
    <radialGradient id="radial-gradient" cx="23.56" cy="37.94" fx="16.59" fy="37.94" r="48.54" gradientTransform="translate(61.53 -25.35) rotate(68.08) scale(1 1.24)" gradientUnits="userSpaceOnUse">
      <stop offset="0" stop-color="#e8aacb"/>
      <stop offset=".19" stop-color="#e6a5c7"/>
      <stop offset=".38" stop-color="#e099bd"/>
      <stop offset=".57" stop-color="#d885ad"/>
      <stop offset=".72" stop-color="#cf709c"/>
      <stop offset=".99" stop-color="#c45e8d"/>
    </radialGradient>
  </defs>
  <g id="Layer_1-2" data-name="Layer 1">
    <g>
      <ellipse class="cls-8" cx="138.6" cy="85.99" rx="92.71" ry="52.58" transform="translate(-3.68 6.24) rotate(-2.55)"/>
      <path class="cls-9" d="M233.86,81.75c.65,21.4-18.24,36.89-35.85,45.14-22.32,10.36-47.24,13.88-71.65,12.69-24.01-1.56-49.31-7.61-67.66-24-7.21-6.54-12.65-15.55-13.07-25.46-.48-9.91,4.13-19.39,10.72-26.56,16.8-18.03,41.48-26.33,65.29-30.05,24.24-3.39,49.41-2.06,72.57,6.34,18.27,6.7,38.47,20.51,39.67,41.9h0ZM228.57,81.99c-1.23-19.24-19.53-31.27-35.98-37.99-22.22-8.89-46.96-10.78-70.63-8-23.5,3.1-48.11,10.7-64.91,28.22-6.51,6.98-11.08,16.19-10.69,25.89.45,9.7,5.81,18.49,12.9,24.88,18.28,16.03,43.48,21.44,67.19,22.47,23.85.7,48.36-3.43,69.7-14.31,15.79-8.2,32.94-21.87,32.41-41.15h0Z"/>
    </g>
    <g>
      <path class="cls-7" d="M7.75,57.88s66.11,88.96,69.5,87.19-5.39-106.76-5.39-106.76L7.75,57.88Z"/>
      <g class="cls-10">
        <g>
          <line class="cls-3" x1="22.88" y1="83.28" x2="68.82" y2="42.97"/>
          <line class="cls-3" x1="29.87" y1="95.43" x2="75.8" y2="55.13"/>
          <line class="cls-3" x1="36.85" y1="107.59" x2="82.79" y2="67.29"/>
          <line class="cls-3" x1="43.84" y1="119.75" x2="89.78" y2="79.45"/>
          <line class="cls-3" x1="51.81" y1="129.21" x2="97.75" y2="88.91"/>
          <line class="cls-3" x1="59.79" y1="138.68" x2="105.73" y2="98.37"/>
          <line class="cls-3" x1="67.76" y1="148.14" x2="113.7" y2="107.83"/>
          <line class="cls-3" x1="59.5" y1="41.16" x2="112.45" y2="71.68"/>
          <line class="cls-3" x1="50.24" y1="51.69" x2="103.19" y2="82.21"/>
          <line class="cls-3" x1="40.98" y1="62.22" x2="93.93" y2="92.74"/>
          <line class="cls-3" x1="22.25" y1="66.36" x2="84.66" y2="103.27"/>
          <line class="cls-3" x1="19.08" y1="80.68" x2="78.27" y2="113.86"/>
          <line class="cls-3" x1="18.93" y1="93.94" x2="82.82" y2="130.54"/>
          <line class="cls-3" x1="12.54" y1="104.54" x2="85.58" y2="144.78"/>
        </g>
      </g>
      <path class="cls-4" d="M66.25,57.76c-10.71,9.05-28.92,14.21-43.25,12.75-1.95-.2-3.83-.52-5.61-.98-14.81-3.78-16.95-15.18-4.79-25.47,12.17-10.28,34.05-15.56,48.86-11.78,3.57.91,6.41,2.27,8.48,3.94,6.53,5.27,5.54,13.72-3.69,21.52Z"/>
      <path class="cls-6" d="M45.64,60.63c-15.66,6.18-32.67,1.28-40.84-10.88-1.11-1.66-2.06-3.46-2.82-5.38C-4.34,28.37,4.98,9.7,22.77,2.67c17.8-7.02,37.35.26,43.67,16.26,1.52,3.86,2.14,7.88,1.94,11.84-.61,12.49-9.23,24.53-22.74,29.85Z"/>
      <path class="cls-2" d="M26.77,38.66c2.91,2.91,7.17,3.98,11.04,2.76,5.68-1.79,7.22-7.46,7.3-7.79"/>
      <circle class="cls-9" cx="17.01" cy="37.99" r="1.85"/>
      <circle class="cls-9" cx="51.04" cy="26.34" r="1.85"/>
    </g>
    <g>
      <path class="cls-5" d="M89.22,98.99c.08,1.76.4,2.99.77,3.89l.86-.04c2.39-.11,13.36-7.65,12.68-22.99-.64-14.49-11.66-21.59-18.69-21.28-8.23.36-15.16,7.6-14.62,19.94.35,7.9,4.15,11.26,5.94,11.18s1.56-.85,2.09-.88c1.39-.06.23,2.21-1.69,2.3-5.77.25-15.46-2.13-15.98-14.14-.44-9.99,6.79-21.03,20.46-21.63,16-.7,29.14,10.88,29.81,25.96.65,14.69-8.46,28.3-15.43,28.6-2.46.11-5.17-1.08-7.1-2.7-1.6,0-3.48-.44-4.59-1.43-1.8-1.69-2.2-6.18-2.32-8.92-.4-9.07.33-24.28,4.44-24.46,4.64-.2,6.53,1.81,6.56,2.52.08,1.83-4.09,3.71-3.2,24.08Z"/>
      <path class="cls-5" d="M135.56,87.73c.04-.59.29-.86.63-.88.73-.03,1.85,1.16,1.91,2.53.27,6.14-3.94,14.69-10.58,14.98-8.56.38-12.61-7.03-12.96-14.99-.51-11.62,3.53-16.57,9.17-16.82-.07-1.57,1.11-1.88,1.78-1.91,3.72-.16,5.15,2.32,5.38,7.42.35,8.03-4.95,14.41-9.07,14.59l-.6.03c1.07,3.09,3.26,6.07,7.31,5.89,4.71-.21,6.74-5.59,7.04-10.84ZM124.97,75.05c-2.57.63-4.81,5.51-4.46,13.6.02.46.11.98.13,1.43,1.59-.26,5.46-4.3,5.15-11.34-.08-1.83-.46-2.92-.83-3.69Z"/>
      <path class="cls-5" d="M138.51,101.46c-2.01-1.81-2.88-9.49-3.2-16.8-.49-11.23.74-26.98,2.27-28.55.57-.61,1.22-.9,1.95-.94,2.26-.1,4.82,2.21,4.86,3.25.06,1.37-3.72,10.56-2.77,32.1.35,8.03,2.33,9.05,3.19,9.02,1.59-.07,3.76-5.14,4.26-10.46,0-.19.25-.34.58-.35.73-.03,1.95.44,1.98,1.22.1,2.35-.84,14.29-6.34,14.54-2.26.1-4.77-1.16-6.79-3.04Z"/>
      <path class="cls-5" d="M151.52,100.89c-2.01-1.81-2.88-9.49-3.2-16.8-.49-11.23.74-26.98,2.27-28.55.57-.61,1.22-.9,1.95-.94,2.26-.1,4.82,2.21,4.86,3.25.06,1.37-3.72,10.56-2.77,32.1.35,8.03,2.33,9.05,3.19,9.02,1.59-.07,3.76-5.14,4.26-10.46,0-.19.25-.34.58-.35.73-.03,1.95.44,1.98,1.22.1,2.35-.84,14.29-6.34,14.54-2.26.1-4.77-1.16-6.79-3.04Z"/>
      <path class="cls-5" d="M175.41,73.94c-.05-1.24.23-2.36,1.69-2.43,1.19-.05,4.18,2.76,4.27,4.98.09,2.09-.18,6.48.03,11.25.07,1.63.14,3.13.33,4.56,3.45-4.8,5.83-9.67,5.75-11.37-.03-.59.35-1,.75-1.02.66-.03,1.57.91,1.69,3.65s-3.55,7.09-7.86,11.79c.22,2.02.45,4.17.56,6.71.38,8.62-2.73,14.96-10.43,15.3-3.39.15-6.62-2.39-6.72-4.54s2.18-4.81,10.5-13.74c.13-3.14.1-6.87-.09-11.11l-.03-.78c-1.37,6.73-3.59,15.2-5.98,15.31-5.31.23-8.08-3.83-8.32-9.31-.32-7.37,1.17-18.82,3.03-18.9s4.9,1.03,5.01,3.57c.06,1.3-2.19,6.05-1.72,16.82.16,3.59,1,4.47,1.99,4.42,2.12-.09,5.71-21.37,5.63-23.13l-.09-2.02ZM175.73,102.37c-3.47,4.27-5.88,8.37-5.8,10.19.02.46.43.77,1.1.74,2.39-.11,4.09-3.71,4.71-10.93Z"/>
      <path class="cls-5" d="M188.9,76.42c-.66.03-1.42-.46-1.43-.79-.02-.39.38-.47.63-.75.76-.95,3.07-5.82,2.93-8.96-.05-1.04-.66-1.48-.67-1.74s.23-.73.77-.75c.86-.04,3.57,1.02,3.66,3.17.12,2.61-2.97,9.68-5.89,9.81Z"/>
      <path class="cls-5" d="M218.13,83.3c.73-.03,1.92,1.22,1.97,2.53v.13c-.05,6.35-4.67,16.1-13.03,16.66h-.13c-4.84.22-7.99-3.24-8.18-7.48-.05-1.17.65-1.92,1.04-1.94.2,0,.34.12.35.44.08,1.76,1.27,4.78,3.47,4.69,2.32-.1,3.88-2.46,3.72-6.05-.19-4.24-3.29-8.23-5.89-11.58l-.42-.57c-.11,4.98-.44,8.19-.44,8.19,0,0,.01.26-.32.28-.8-.1-2.23-.69-2.26-1.54v-.13s.36-3.87.4-10.55c-.36-.64-.52-1.15-.54-1.68-.24-5.48,5.77-7.77,7.37-7.84s2.28.55,2.35,1.99c.01.32-.52,1.85-.43,3.81.36,8.22,7.41,9.68,7.84,19.47.05,1.04-.05,1.96-.21,2.82,2.33-3.04,2.67-7.31,2.78-10.85.04-.59.23-.8.56-.81Z"/>
    </g>
  </g>
</svg>